<svg xmlns="http://www.w3.org/2000/svg" id="Layer_1" data-name="Layer 1" viewBox="0 0 759.39 338.25"><defs><style>.cls-1{fill:#6c9}.cls-2{fill:none;stroke:#000;stroke-miterlimit:10}</style></defs><title>esmelogodrawing</title><path d="M734.8,131.91v-8.36l1.52.17c6.07.66,12.14,1,18.21,1.36,3,.16,6.08.27,9.12.37s6.07.19,9.11.24c6.08.12,12.15.09,18.23,0s12.16-.39,18.25-1l1.11-.11.36,1.4h0c.64,10.06,1.15,20,1.55,30,.16,5,.37,10,.46,15s.22,10,.21,15,0,10-.06,15-.21,10-.37,15c-.36,10-1,20-1.8,30l-.09,1.2-1.39.09h0c-5.8-.53-11.6-.82-17.39-1.06s-11.6-.36-17.39-.4c-2.9,0-5.8-.07-8.7,0s-5.8.16-8.7.33c-5.79.36-11.59.9-17.39,1.14l-1.41.06-.07-1.54a64.91,64.91,0,0,1,0-6.69l1.5,1.5h0q-15.61-.39-31.22-.38t-31.22.19l-62.44.66H615a16.38,16.38,0,0,0-1.91.46,18.55,18.55,0,0,0-1.94.68,18.18,18.18,0,0,0-3.56,1.93,13,13,0,0,0-4.81,6,14.12,14.12,0,0,0-.86,3.79c-.06.62-.09,1.42-.13,2.16l-.11,2.25-.47,9c-.36,6-.8,12.07-1.42,18.11a180.23,180.23,0,0,1-2.69,18.13,67.55,67.55,0,0,1-2.5,9.08,28.9,28.9,0,0,1-2,4.55l-.34.56-.16.29a5.11,5.11,0,0,1-.32.44,7.49,7.49,0,0,1-1.34,1.29,15.34,15.34,0,0,1-2.36,1.46,61.48,61.48,0,0,1-8.87,3.47c-2.93.94-5.87,1.78-8.81,2.57-11.75,3.14-23.56,5.68-35.39,8.11-23.67,4.81-47.41,9-71.19,13q-17.83,3-35.72,5.73-8.94,1.38-17.91,2.67c-3,.42-5.93.85-9.13,1.21-1.6.19-2.82.32-4.36.53l-4.43.6c-11.9,1.66-23.87,3.33-35.83,4.87s-24,3-36,4.31q-36,4-72.25,6.24c-6,.36-12.08.75-18.13,1l-9.08.42c-3,.14-6.05.19-9.08.29q-18.18.62-36.39.5c-6.08,0-12.17-.14-18.27-.39s-12.21-.81-18.35-1.48-12.28-1.48-18.56-2.62c-3.15-.57-6.37-1-9.73-1.91a34,34,0,0,1-5.29-1.82c-.48-.22-1-.46-1.47-.72s-1-.55-1.62-1a10.85,10.85,0,0,1-.89-.63l-.47-.38c-.16-.13-.36-.31-.53-.47A11.35,11.35,0,0,1,99.17,364l-.37-.49c-.13-.19-.2-.28-.37-.56s-.3-.51-.43-.76a8.23,8.23,0,0,1-.7-2l.74,2h0l-4-10c-1.31-3.27-2.58-6.54-4-9.73-2.82-6.42-5.68-12.82-8.38-19.3a180.84,180.84,0,0,1-6.92-19.86c-1-3.37-1.94-6.75-2.85-10.13s-1.74-6.8-2.53-10.22a359.32,359.32,0,0,1-9.15-83.46c.36-28,4.36-55.66,10.6-82.69a415.3,415.3,0,0,1,11.47-40A319.59,319.59,0,0,1,98.08,38.35l2.7,1.3C89.31,64.55,81.67,91.11,76.36,118a386.94,386.94,0,0,0-5.76,40.6,343.79,343.79,0,0,0-1.27,40.82q.28,10.19,1.4,20.29c.71,6.73,1.71,13.44,3,20.1a370.32,370.32,0,0,0,9.66,39.46c1.9,6.5,4,12.95,6.15,19.36s4.44,12.78,6.52,19.23,4.31,12.86,6.89,19.12a98.29,98.29,0,0,0,4.34,9.16c.79,1.49,1.61,3,2.45,4.42.42.72.84,1.45,1.28,2.15s.89,1.44,1.31,2h0l.74,2a6.52,6.52,0,0,0-.6-1.71,4.35,4.35,0,0,0-.29-.52l-.21-.33a2.56,2.56,0,0,0-.2-.26,4.55,4.55,0,0,0-.39-.44l-.11-.09,0,0,0,0a3.65,3.65,0,0,0,.31.21l.55.3a31,31,0,0,0,3.16,1.32,52.67,52.67,0,0,0,7.82,2.26,143.56,143.56,0,0,0,17.23,2.08c5.85.42,11.76.65,17.67.94s11.86.56,17.82.71c11.91.33,23.88.42,35.83.26,3,0,6,0,9-.09l9-.22c6-.1,12-.36,17.94-.59q35.89-1.44,71.76-4.65,17.92-1.56,35.83-3.43c11.95-1.26,23.86-2.62,35.84-4l4.52-.5c1.45-.17,3.23-.32,4.63-.45,2.78-.24,5.84-.61,8.78-1q8.92-1.06,17.87-2.23,17.86-2.32,35.72-4.86c23.79-3.4,47.57-7,71.2-11.23,11.8-2.13,23.59-4.37,35.17-7.17,2.89-.71,5.76-1.46,8.58-2.29a56.61,56.61,0,0,0,8-2.89,10.35,10.35,0,0,0,1.5-.86,2.44,2.44,0,0,0,.3-.24s0,.06,0,0l.12-.2.25-.4a23,23,0,0,0,1.72-3.63,61.07,61.07,0,0,0,2.46-8.27,176.69,176.69,0,0,0,3-17.51c.74-5.92,1.31-11.88,1.78-17.86l.67-9,.16-2.25c.06-.76.09-1.47.19-2.34a18.44,18.44,0,0,1,1.25-5,17.16,17.16,0,0,1,6.49-7.77,22.65,22.65,0,0,1,4.4-2.27,24.61,24.61,0,0,1,2.34-.77,20.34,20.34,0,0,1,2.48-.53l.13,0h.14l62.44.67q15.62.18,31.22.18t31.22-.37h0l1.41-.09.09,1.59a64.91,64.91,0,0,1,0,6.69l-1.48-1.48c5.8.24,11.6.77,17.39,1.14,2.9.16,5.8.28,8.7.32s5.8,0,8.7,0c5.79,0,11.59-.18,17.39-.39s11.59-.53,17.39-1.06h0l-1.49,1.28a243,243,0,0,0,4.1-29.6c.84-9.94,1.12-19.93,1.1-29.91s-.49-20-1.33-29.91a285.12,285.12,0,0,0-3.87-29.63h0l1.47,1.29c-6.07-.75-12.14-1.16-18.21-1.46s-12.15-.47-18.23-.5c-3,0-6.08,0-9.12,0s-6.08,0-9.12.14c-6.08.15-12.16.38-18.24.88l1.52-1.5v6.69Z" class="cls-1" transform="translate(-60.2 -38.35)"/><path d="M666.68,189.8c-4.68-2-10.55-4.3-10.55-8.79,0-7.23,8.8-13.68,13.3-13.68,2.74,0,7.42,3.91,7.42,5.28,0,4.7-3.12,10.56-7.42,16.42l.58.27-1.56,1.29q-1.46,1.89-3,3.77l-1.78-.62C664.71,192.44,665.73,191.12,666.68,189.8Zm2.51-1.6c3.3-5,5.82-10.08,5.82-14.35a1.09,1.09,0,0,0-1.17-1c-1.74,0-7.56,4.08-7.56,11.05C666.28,185.68,667.44,187,669.19,188.2Z" transform="translate(-60.2 -38.35)"/><path d="M611.37,211.15c-.63,1.18-1.21,2.35-1.7,3.45q-1,.71-2.28,1.41c.15-.38.33-.77.5-1.16.28-.62.59-1.27.91-1.93C609.76,212.31,610.61,211.71,611.37,211.15Z" transform="translate(-60.2 -38.35)"/><path d="M657.93,155.62c0,1.36-2.52,5.42-4.07,6.2a56.82,56.82,0,0,1-5.44,1.94c-3.68,1.16-4.85,3.3-5.63,3.3a1.12,1.12,0,0,1-1.16-1.17c0-4.65,7.37-14.35,7.37-19a.71.71,0,0,1,.78-.78C652.89,146.11,657.93,152.9,657.93,155.62Z" transform="translate(-60.2 -38.35)"/><path d="M249.41,259.49,247.35,258a33.39,33.39,0,0,0,5.52-4.83c4-9.84,9.82-21.63,13.94-33.17.54-1.32,1.1-2.13,1.87-2.16,2.73-.09,6.86,6.55,7.12,13.34.1,3.13-10.07,23.88-10.91,27.57,0,0,2.26-3.33,5.67-8.22l2.37,1.21c-4.37,6.46-7.93,12.06-9.51,14.91-5.31,9.32-6.5,14.33-8.45,14.41-1.75.06-6.22-4.75-6.45-11.26-.11-3.12.85-7.07,2.45-11.63C250.45,258.66,249.94,259.08,249.41,259.49Z" transform="translate(-60.2 -38.35)"/><path d="M115.8,205.81c.22,6,3.19,10.81,10.89,10.54,17.57-.64,51.89-24.31,55.1-24.42,3.65-.13,7.88,10.07,8.08,15.52.1,2.87-6.62,6.85-13.09,11.69-22.33,17.48-71.15,55.49-70.09,84.76.31,8.63,5.45,14.47,12.53,14.21,29.55-1.07,55.37-19.58,74.76-39.85l1.59,1.46C174.92,302.17,147.75,324,122,324.91c-10.71.39-25.15-13.47-25.65-27.24-1.32-36.76,50.28-74.86,80.59-96.94l-.25-.86c-11.79,6.19-40.65,20.74-53.08,21.19-9.21.33-20-7.62-20.54-22.55C101.65,158.31,175.94,95,230.35,93c10.92-.4,17.2,7.88,19,16l-2.72.57c-.93-4.71-4.44-7.24-9.33-7.07C182.93,104.48,114.52,170.21,115.8,205.81Z" transform="translate(-60.2 -38.35)"/><path d="M775.92,217.09a107.81,107.81,0,0,0,12,1.37,23.44,23.44,0,0,0,.78-6.79,35.66,35.66,0,0,0-1.17-9.12A102.2,102.2,0,0,1,775.92,217.09Zm-8,7.18c2.33,1.75,5.24,3.3,8.35,3.3a11.33,11.33,0,0,0,10.87-7.17,109.52,109.52,0,0,1-12.81-1.75A82.62,82.62,0,0,1,768,224.27Zm49.48-13.56c-5.86,5.87-12.91,8.41-19.75,9.39v.58c0,7.42-8.41,15.82-18,15.82-5.47,0-11.53-4.69-15.44-9.56l-1.06.74-2.4-.88c.75-.44,1.52-.91,2.28-1.43-1.75-2.74-2.93-5.27-2.93-7a3,3,0,0,1,3.13-3.11c2,0,5.48.77,9.58,1.56a165.87,165.87,0,0,0,13.49-16.23c-1.17-3.12-2.54-5.47-2.54-9.18,0-7.43,10.17-15.43,13.69-15.43,2.74,0,7,4.49,7,7,0,2.93-12.71,8-12.71,15.24,0,8.4,4.89,10.94,5.68,19.94a33.29,33.29,0,0,0,19.94-9.78s.59-.78,1.17-.78a1.06,1.06,0,0,1,1,.78C819.59,208.76,818,210.13,817.44,210.71Zm-51,12.2c1.75-1.54,3.69-3.1,5.44-4.85a40.13,40.13,0,0,0-5.83-1c-1.16,0-2.13.59-2.13,1.75C763.89,219.62,764.86,221.17,766.41,222.91Z" transform="translate(-60.2 -38.35)"/><path d="M219.73,246c-1.19,1.79-2.09,3-2.57,3.6l1.81-2.68A6.67,6.67,0,0,1,219.73,246Z" transform="translate(-60.2 -38.35)"/><path d="M556.64,210.12c4.46-5.24,23.09-26.38,31.05-26.38,4.66,0,10.67,7.18,10.67,13.57,0,7.77-5.43,15.91-12.42,22.31a42.16,42.16,0,0,0,22.86-6.7c-.32.66-.63,1.31-.91,1.93-.17.39-.35.78-.5,1.16a46.77,46.77,0,0,1-23.58,5.93c-7.76,5.82-15.91,9.5-21.93,9.5-6.28,0-10.93-2.67-12.78-6.07l2.8-.57c1,1.35,2.86,2,5.13,2,4.07,0,8.73-2.72,13-6.59-2.78-.73-5.28-1.45-7.6-1.9l.48-2.35c2.91.61,6,1.42,9.26,2.12,8.73-9.32,15.91-23.09,15.91-27.74a2.26,2.26,0,0,0-2.52-2.52c-5.1,0-18.66,14.1-27.3,23.48Z" transform="translate(-60.2 -38.35)"/><path d="M207.25,266.18c.28,3.08,2.73,10.26,8.75,10,4.47-.16,8.65-3.18,10.75-10-9.08-.44-14.92-2-17.92-2Zm18.36-26.11c-2.08,3.41-3.63,5.86-5,7.84v0c-.59,1.07-1.55,2.46-1.55,2.46-2.44,3.53-5.23,7.35-8.33,11.34a118.27,118.27,0,0,0,16.47,1.81,40.23,40.23,0,0,0,.65-9.18A52.38,52.38,0,0,0,225.61,240.07Zm-8.56,9.69a1.34,1.34,0,0,1,.11-.14c.48-.6,1.38-1.81,2.57-3.6,1.37-2,3.11-4.8,5-8.26-1.1-3.36-2.17-6.2-2.34-10.64-.36-9.92,9.19-21,12.69-21.1,2.73-.1,7.23,5.75,7.36,9.14.13,3.92-12.28,11.17-11.93,20.82.41,11.23,5.78,14.43,7,26.41a28.47,28.47,0,0,0,9.82-4.36l2.06,1.46a29.28,29.28,0,0,1-11.59,5.5c.39,10.68-8,22.23-17.32,22.57-7.72.27-13.86-10.56-15.89-18.17-2.84,3.4-5.86,6.88-9,10.33L194,278.26c3.59-3.77,7-7.58,10.09-11.36a15,15,0,0,1-.17-1.74c-.07-1.82.64-3.67,2.59-3.75a16.78,16.78,0,0,1,2,.07c2.51-3.2,4.82-6.35,6.94-9.35C216,251.32,216.52,250.53,217.05,249.76Z" transform="translate(-60.2 -38.35)"/><path d="M695.89,218.3c-6.82,6.12-16.44,13.71-22.16,13.71s-12.13-5.07-12.13-10.55c0-11.52,10.37-20.91,10.37-27,0-1.76-1.57-2.93-3.52-3.91L670,189.3c6.09,2.77,15.45,4.57,15.45,9.5,0,7.42-13.49,18-13.49,25.39,0,2.36,1.37,4.49,4.11,4.49,3.83,0,11.39-5.7,17.67-11.06Z" transform="translate(-60.2 -38.35)"/><path d="M560.1,120l2.46.82c-10.54,16.73-36.77,36.92-39.84,36.92-1.28,0-4.06-2.14-4.06-3.2,0-.42.43-.85,1.07-1.06C533.79,146.74,552.22,132.05,560.1,120Z" transform="translate(-60.2 -38.35)"/><path d="M313.25,269.32c-.4-11,12.41-28.94,12.26-33.11,0-.52-.43-1-.82-1-1.22,0-6.7,4.53-12.22,10.11l-2.52-1c6.34-6.43,14.28-14,16.31-14.12,3.12-.11,7.34,8.62,7.62,16.45s-11.42,18.7-11,29.4c.06,1.83.88,2.85,2.25,2.8,6-.22,17-13.61,24.27-23.47l2.21.23c-7.42,10.31-20.9,27.75-27.48,28C319.81,283.73,313.54,277.41,313.25,269.32Z" transform="translate(-60.2 -38.35)"/><path d="M386.4,162.13c2.73-.1,10.82,8,11,11.36.06,2.09-1.84,3.2-3.55,4.57-18.32,16.35-26.29,17.16-27.65,17.21-1,0-1.4-.73-1.43-1.78-.05-1.56,5-1.48,16.78-21.25,3.32-5.36,3.62-7.71,3.8-8.51C385.64,162.67,385.82,162.15,386.4,162.13Z" transform="translate(-60.2 -38.35)"/><path d="M651.83,209.74S628,232.59,615.27,232.59c-3.14,0-9.4-4.49-9.4-10.74a16.58,16.58,0,0,1,1.52-5.84q1.23-.7,2.28-1.41c.49-1.1,1.07-2.27,1.7-3.45-.76.56-1.61,1.16-2.57,1.77l.8-1.56c5.23-9.92,14.39-22.53,17-29,.59-1.17,1.37-1.95,2.35-1.95,3.91,0,8.22,4.49,8.22,8s-22.3,28.74-22.3,37.14c0,2.34,1.37,3.31,3.13,3.31,9.41,0,27-15.3,32.3-20.08h0a5,5,0,0,0,.35-.43c3.34-3.65,8.48-9,13-14.63l1.78.62c-4.45,5.41-9.27,10.58-13,14.51A4.4,4.4,0,0,1,651.83,209.74Z" transform="translate(-60.2 -38.35)"/><path d="M435.41,266.3c0,3,2.35,6,7,6a14.1,14.1,0,0,0,1.55-.09l.32,2.47a22.05,22.05,0,0,1-2.73.18c-6.62,0-15.37-4.48-15.37-12.8,0-11.75,26.25-27.41,54.74-38.7l.82,2.08C455.1,236.22,435.41,252.22,435.41,266.3Z" transform="translate(-60.2 -38.35)"/><path d="M782.44,155.61c17.8,1,25.42,4.69,25.42,5.08a1.83,1.83,0,0,1-.78,1.18c-.59,0-8.21-3.52-23.66-3.52h-2.93c-12.52,17.38-32.07,45.52-32.07,68.2,0,2.33,1.37,3.31,3.13,3.31,2.86,0,6-1.16,9.25-3.06l2.4.88c-5.29,3.66-10.36,5.89-14.39,5.89s-9.38-4.5-9.38-10.74a48.1,48.1,0,0,1,1.22-10.34c-2.59,2.35-7.54,6.68-13.18,10.82l-1.17-1.61a167.22,167.22,0,0,0,15.1-12.27c4.36-16.14,15.11-34.11,24.23-49.13-7.44,1.76-11.93,3.91-12.52,3.91-2,0-4.3-3.52-4.3-5.28,0-.58,0-1,1-1.37,4.1-1.37,12.52-1.95,18.77-2.14,6.85-11.14,12.12-20.13,12.12-25,0-1,.39-1.37,1-1.37,2.74,0,9,7.82,9,13.49C790.66,144.08,787.33,149,782.44,155.61Z" transform="translate(-60.2 -38.35)"/><path d="M543.64,212.32c0,.64-.43.86-1.28.86a146.07,146.07,0,0,0-16.87,1.06c-7.17,21.11-58,57.54-81.16,60.41l-.32-2.47c16.74-1.82,55-31.41,66.33-55.59a177.6,177.6,0,0,0-28.55,8.82l-.82-2.08a269.66,269.66,0,0,1,30.65-10.15,24.42,24.42,0,0,0,1.92-9.17c0-5.55-3-10.89-11.53-10.89l-.17-2.89c1-.07,2-.1,3-.1,11.1,0,21.56,10,21.56,20.06a68,68,0,0,1,12.38-1.28C541.72,208.91,543.64,211.47,543.64,212.32Z" transform="translate(-60.2 -38.35)"/><path d="M727.47,223.31c-7.22,5.3-15.56,10.26-21.48,10.26-3.13,0-9.38-4.5-9.38-10.74a18.62,18.62,0,0,1,2-7c-.85.78-1.76,1.63-2.74,2.5l-2.14-.68c2.84-2.43,5.42-4.8,7.26-6.53,5.3-9.71,13.82-21.56,16.32-27.73.59-1.17,1.37-2,2.35-2,3.91,0,8.21,4.5,8.21,8s-22.29,28.74-22.29,37.14c0,2.33,1.37,3.31,3.13,3.31,4.66,0,11.37-3.78,17.57-8.16Z" transform="translate(-60.2 -38.35)"/><path d="M201.31,161.9c18.62-7,46.1-36.17,45.59-50.24a14.89,14.89,0,0,0-.23-2.07l2.72-.57a22.89,22.89,0,0,1,.57,4.25c.54,14.94-23.11,43.4-37.55,53.12-2.72,1.82-5,3.06-6.76,3.11-1.28.05-5.47-3.25-5.58-6.12C200.05,162.81,200.25,162.23,201.31,161.9Z" transform="translate(-60.2 -38.35)"/><path d="M270.56,250.56c9.44-13.51,27.66-39,31.24-39.11,3.31-.12,10.35,5.9,10.66,14.52.32,8.86-11,24.18-10.92,27.05,0,0,3.77-4,8.41-8.73l2.52,1a92.18,92.18,0,0,0-9.07,10.52c-4.46,6.18-7.76,12-8.93,12.09-2.33.09-6.25-5.8-6.37-9.18-.26-7.3,15.3-35.32,15.07-41.58,0-.78-.23-1-.62-1-4.24.14-19.24,20.33-29.62,35.64Z" transform="translate(-60.2 -38.35)"/><path d="M217.05,249.76c-.53.77-1.09,1.56-1.66,2.37.29-.56.81-1.19,1.41-2.06Z" transform="translate(-60.2 -38.35)"/><path d="M748,155.62c0,1.36-2.53,5.42-4.08,6.2a56.54,56.54,0,0,1-5.43,1.94c-3.69,1.16-4.85,3.3-5.63,3.3a1.13,1.13,0,0,1-1.17-1.17c0-4.65,7.38-14.35,7.38-19a.71.71,0,0,1,.78-.78C742.93,146.11,748,152.9,748,155.62Z" transform="translate(-60.2 -38.35)"/><path d="M558.39,217.87c-4.66,0-7.18,1.94-7.18,4.65a3.74,3.74,0,0,0,.69,2.28l-2.8.57a7.92,7.92,0,0,1-.61-1.49c-11.06,19.4-22.9,42.47-22.9,58.76,0,.78-.19,1.36-.77,1.36-1.56,0-5.44-4.27-5.44-7.76,0-26.38,41.14-86.68,41.14-97.93a1.3,1.3,0,0,1,1.36-1.16c2.52,0,7.18,6,7.18,9.11s-5.43,12.22-12.42,23.86l1.62,1.17c-1.24,1.33-2.37,2.58-3.37,3.67a38.9,38.9,0,0,1,8,1l-.48,2.35A22,22,0,0,0,558.39,217.87Z" transform="translate(-60.2 -38.35)"/><path d="M379.14,214.93c-3.31.12-10.53,10.57-15.69,29.84,8.48-8.15,17.58-21,17.35-27C380.73,215.66,380.11,214.89,379.14,214.93Zm37.21,27.93s1-1.08,1.5-1.1a1.09,1.09,0,0,1,1.06,1c0,.53-1.71,2.42-2.45,3.22,0,0-24.39,29.1-44.14,29.81-12.77.47-20-7.22-20.74-20.22l-2.21-.23c.76-1,1.47-2,2.14-2.93.52-22.84,21.71-46.68,32.65-47.08,6.93-.25,11.6,8.47,11.72,11.6.26,7.31-14.88,21.71-28.67,31.09a42.27,42.27,0,0,0-.49,8.12c.3,8.09,4.4,14.73,11.84,14.46C392.16,270.12,416.35,242.86,416.35,242.86Z" transform="translate(-60.2 -38.35)"/><path d="M501.84,190.23l.17,2.89a40.61,40.61,0,0,0-6.73.65l-.44-2.72A64.87,64.87,0,0,1,501.84,190.23Z" transform="translate(-60.2 -38.35)"/><path d="M427.51,207.63c21.15,0,46.09-13,67.33-16.58l.44,2.72c-20.09,3.41-53.59,19-72,19-9.82,0-20.7-7.26-20.7-17.07C402.54,155.15,498.38,92,548.12,92c12.6,0,18.79,9.18,18.79,17.06,0,3.43-1.66,7.47-4.35,11.73L560.1,120c2.4-3.7,3.82-7.15,3.82-10,0-4.69-3-9.39-9.61-9.39-46.75,0-138.32,60.16-138.32,96.86C416,202.73,420.26,207.63,427.51,207.63Z" transform="translate(-60.2 -38.35)"/><path d="M380.8,217.75c.23,6-8.87,18.87-17.35,27,5.16-19.27,12.38-29.72,15.69-29.84C380.11,214.89,380.73,215.66,380.8,217.75Z" class="cls-2" transform="translate(-60.2 -38.35)"/><path d="M558.26,211.29c8.64-9.38,22.2-23.48,27.3-23.48a2.26,2.26,0,0,1,2.52,2.52c0,4.65-7.18,18.42-15.91,27.74-3.3-.7-6.35-1.51-9.26-2.12a38.9,38.9,0,0,0-8-1C555.89,213.87,557,212.62,558.26,211.29Z" class="cls-2" transform="translate(-60.2 -38.35)"/><path d="M788.73,211.67a23.44,23.44,0,0,1-.78,6.79,107.81,107.81,0,0,1-12-1.37,102.2,102.2,0,0,0,11.64-14.54A35.66,35.66,0,0,1,788.73,211.67Z" class="cls-2" transform="translate(-60.2 -38.35)"/></svg>